<?xml version="1.0" encoding="UTF-8" standalone="no"?>
<!DOCTYPE svg PUBLIC "-//W3C//DTD SVG 1.1//EN" "http://www.w3.org/Graphics/SVG/1.1/DTD/svg11.dtd">
<svg width="100%" height="100%" viewBox="0 0 1280 1280" version="1.1" xmlns="http://www.w3.org/2000/svg" xmlns:xlink="http://www.w3.org/1999/xlink" xml:space="preserve" style="fill-rule:evenodd;clip-rule:evenodd;stroke-linejoin:round;stroke-miterlimit:1.41421;">
    <rect x="0" y="0" width="1280" height="1280"/>
    <g transform="matrix(3.351,0,0,3.351,-655.611,-872.421)">
        <path d="M228.978,440.34L284.506,440.34L284.506,379.524L308.304,379.524L308.304,440.34L364.162,440.34L364.162,463.477L308.304,463.477L308.304,524.623L284.506,524.623L284.506,463.477L228.978,463.477L228.978,440.34Z" style="fill:white;fill-rule:nonzero;"/>
        <path d="M429.936,391.092C433.241,389.109 438.034,387.071 444.314,384.977C450.594,382.884 457.59,381.837 465.302,381.837C475.658,381.837 484.913,383.821 493.066,387.787C501.219,391.753 508.105,397.262 513.724,404.313C519.342,411.364 523.639,419.792 526.614,429.598C529.589,439.403 531.076,450.256 531.076,462.154C531.076,474.494 529.313,485.622 525.788,495.537C522.262,505.453 517.304,513.881 510.914,520.822C504.524,527.763 496.812,533.107 487.778,536.853C478.743,540.599 468.717,542.472 457.7,542.472C445.581,542.472 434.784,541.59 425.309,539.827C415.834,538.065 408.232,536.302 402.503,534.539L402.503,314.411L429.936,309.783L429.936,391.092ZM429.936,515.038C434.123,516.14 438.309,516.966 442.496,517.517C446.683,518.068 450.649,518.343 454.395,518.343C469.599,518.343 481.498,513.661 490.091,504.296C498.685,494.931 502.982,480.884 502.982,462.154C502.982,454.222 502.21,446.785 500.668,439.844C499.126,432.903 496.702,426.954 493.396,421.996C490.091,417.038 485.849,413.127 480.671,410.262C475.493,407.398 469.268,405.966 461.997,405.966C455.607,405.966 449.437,407.233 443.487,409.767C437.538,412.301 433.021,415 429.936,417.864L429.936,515.038Z" style="fill:white;fill-rule:nonzero;"/>
    </g>
</svg>
